<?xml version="1.0" encoding="utf-8"?>
<!-- Generator: Adobe Illustrator 23.0.3, SVG Export Plug-In . SVG Version: 6.00 Build 0)  -->
<svg version="1.1" id="Ebene_1" xmlns="http://www.w3.org/2000/svg" xmlns:xlink="http://www.w3.org/1999/xlink" x="0px" y="0px"
	 viewBox="0 0 114.1 200" style="enable-background:new 0 0 114.1 200;" xml:space="preserve">
<style type="text/css">
	.st0{fill:#FFFFFF;}
	.st1{fill:none;}
</style>
<g>
	<path class="st0" d="M27.3,190.77c-2.01,2.01-4.44,3.01-7.3,3.01s-5.3-1-7.3-3.01l-9.45-9.45c-2.01-2-3.08-4.44-3.22-7.3
		s0.79-5.3,2.79-7.3l66.6-66.6L2.81,33.5c-2.01-2.01-2.94-4.44-2.79-7.3s1.22-5.3,3.22-7.3l9.45-9.45c2.01-2.01,4.44-3.01,7.3-3.01
		s5.3,1,7.3,3.01l83.36,83.36c2.29,2.01,3.44,4.44,3.44,7.3s-1.15,5.3-3.44,7.3L27.3,190.77z"/>
</g>
<path class="st1" d="M68.15,200"/>
</svg>
