<?xml version="1.0" encoding="utf-8"?>
<!-- Generator: Adobe Illustrator 23.0.3, SVG Export Plug-In . SVG Version: 6.00 Build 0)  -->
<svg version="1.1" id="Ebene_1" xmlns="http://www.w3.org/2000/svg" xmlns:xlink="http://www.w3.org/1999/xlink" x="0px" y="0px"
	 viewBox="0 0 200 200" style="enable-background:new 0 0 200 200;" xml:space="preserve">
<style type="text/css">
	.st0{fill:#FF8500;}
</style>
<g>
	<path class="st0" d="M195.3,185.52c0,2.49-0.87,4.6-2.61,6.34c-1.74,1.74-3.86,2.61-6.34,2.61H13.25c-2.49,0-4.6-0.87-6.34-2.61
		s-2.61-3.85-2.61-6.34v-41.78c0-2.49,0.87-4.6,2.61-6.34c1.74-1.74,3.85-2.61,6.34-2.61h54.84l18.28,18.28
		c3.73,3.73,8.21,5.6,13.43,5.6s9.7-1.87,13.43-5.6l18.28-18.28h54.84c2.49,0,4.6,0.87,6.34,2.61c1.74,1.74,2.61,3.86,2.61,6.34
		L195.3,185.52L195.3,185.52z M114.72,3.48c2.49,0,4.6,0.87,6.34,2.61s2.61,3.85,2.61,6.34V75.1h32.83c3.23,0,5.47,1.55,6.71,4.66
		c1.24,3.11,0.75,5.78-1.49,8.02l-56.7,56.7c-1.49,1.49-3.23,2.24-5.22,2.24s-3.73-0.75-5.22-2.24l-56.7-56.7
		c-2.24-2.24-2.74-4.91-1.49-8.02s3.48-4.66,6.71-4.66h32.83V12.43c0-2.49,0.87-4.6,2.61-6.34s3.85-2.61,6.34-2.61
		C84.88,3.48,114.72,3.48,114.72,3.48z M146.8,171.35c-1.49-1.49-3.23-2.24-5.22-2.24s-3.73,0.75-5.22,2.24s-2.24,3.23-2.24,5.22
		s0.75,3.73,2.24,5.22s3.23,2.24,5.22,2.24s3.73-0.75,5.22-2.24s2.24-3.23,2.24-5.22C149.04,174.58,148.29,172.84,146.8,171.35z
		 M170.68,171.35c-1.49-1.49-3.23-2.24-5.22-2.24s-3.73,0.75-5.22,2.24s-2.24,3.23-2.24,5.22s0.75,3.73,2.24,5.22
		s3.23,2.24,5.22,2.24s3.73-0.75,5.22-2.24s2.24-3.23,2.24-5.22C172.91,174.58,172.17,172.84,170.68,171.35z"/>
</g>
</svg>
