<?xml version="1.0" encoding="utf-8"?>
<!-- Generator: Adobe Illustrator 23.0.3, SVG Export Plug-In . SVG Version: 6.00 Build 0)  -->
<svg version="1.1" id="Ebene_1" xmlns="http://www.w3.org/2000/svg" xmlns:xlink="http://www.w3.org/1999/xlink" x="0px" y="0px"
	 viewBox="0 0 200 200" style="enable-background:new 0 0 200 200;" xml:space="preserve">
<style type="text/css">
	.st0{fill:#707070;}
</style>
<g>
	<path class="st0" d="M196.05,175.73c0,5.73-2.01,10.6-6.02,14.61c-4.01,4.01-8.88,6.02-14.61,6.02H138.9V120.3h25.78l3.87-29.22
		H138.9V72.6c0-4.58,0.86-8.02,2.58-10.31c2.29-2.58,6.16-3.87,11.6-3.87h15.47V32.64c-6.02-0.86-13.46-1.29-22.34-1.29
		c-11.46,0-20.55,3.37-27.29,10.1c-6.73,6.73-10.1,16.11-10.1,28.14v21.48H82.61v29.22h26.21v76.05H24.17c-5.73,0-10.6-2-14.61-6.02
		c-4.01-4.01-6.02-8.88-6.02-14.61V24.48c0-5.73,2.01-10.6,6.02-14.61s8.88-6.02,14.61-6.02h151.25c5.73,0,10.6,2.01,14.61,6.02
		c4.01,4.01,6.02,8.88,6.02,14.61V175.73z"/>
</g>
</svg>
